<svg width="48" height="46" viewBox="0 0 48 46" fill="none" xmlns="http://www.w3.org/2000/svg">
<path d="M24.8964 2C24.8508 2.36664 22.6346 2.17355 22.3786 2.17355C19.938 2.17355 17.6995 2.55135 15.3729 3.30165C11.3627 4.59492 6.2477 5.45248 3.58144 9.01928C2.78519 10.0845 2.17939 11.1519 2.07267 12.4904C1.91498 14.468 2.06306 16.5128 2.06306 18.4972C2.06306 20.3291 1.94859 22.2308 2.32253 24.0317C2.49273 24.8514 2.43701 25.6815 2.62044 26.5096C2.77979 27.2291 3.08459 27.9185 3.27392 28.6309C3.93854 31.1315 5.36883 33.3779 6.08004 35.843C6.36894 36.8443 7.0764 37.7532 7.42544 38.7163C7.88613 39.9873 8.96222 40.712 9.77028 41.7438C10.3285 42.4566 11.721 43.1547 12.5764 43.4408C13.8459 43.8653 15.0023 44 16.382 44C20.1171 44 23.8521 44 27.5872 44C30.9823 44 34.4174 42.6726 37.4471 41.2135C38.8431 40.5412 40.4048 40.3632 41.7139 39.4876C43.3407 38.3995 44.5386 35.9163 45.0967 34.1074C45.5306 32.7007 46 31.3414 46 29.8554C46 27.8049 46 25.7544 46 23.7039C46 22.24 45.4054 20.2991 44.8756 18.9408C44.413 17.7545 43.6398 16.7708 43.1458 15.6143C42.1817 13.3573 40.9585 11.5061 39.5997 9.50138C38.1228 7.32223 36.5956 6.59364 34.2662 5.48072C33.1414 4.94334 31.8712 4.62148 30.7778 4.04408C30.2751 3.77865 29.4421 3.24835 28.875 3.21488C27.6713 3.14383 26.7599 2.17355 25.5883 2.17355" stroke="#E8D2AB" stroke-width="3" stroke-linecap="round"/>
<path d="M30.8033 16.351C30.7972 16.3395 30.787 16.3306 30.7748 16.326C29.4142 15.7017 27.9785 15.2563 26.5035 15.0011C26.4902 14.9986 26.4766 15.0004 26.4644 15.0062C26.4522 15.012 26.4422 15.0214 26.4356 15.0332C26.24 15.3883 26.0624 15.753 25.9035 16.126C24.3127 15.8846 22.6945 15.8846 21.1037 16.126C20.9442 15.7521 20.7641 15.3873 20.5644 15.0332C20.5575 15.0218 20.5474 15.0126 20.5353 15.0069C20.5233 15.0012 20.5098 14.9991 20.4966 15.0011C19.019 15.2552 17.5807 15.7006 16.2181 16.326C16.2062 16.3311 16.1962 16.3398 16.1896 16.351C13.4682 20.4187 12.7218 24.3829 13.0861 28.3006C13.0871 28.3105 13.0902 28.32 13.0951 28.3286C13.1001 28.3372 13.1067 28.3447 13.1147 28.3506C14.6999 29.5231 16.4726 30.418 18.3574 30.997C18.3709 31.0012 18.3854 31.001 18.3989 30.9965C18.4123 30.992 18.424 30.9834 18.4324 30.972C18.8367 30.4214 19.1951 29.8385 19.5037 29.2292C19.5079 29.2208 19.5102 29.2116 19.5106 29.2023C19.511 29.193 19.5095 29.1837 19.5061 29.1749C19.5028 29.1662 19.4977 29.1583 19.4911 29.1517C19.4846 29.145 19.4767 29.1398 19.468 29.1363C18.9018 28.9193 18.3537 28.6578 17.8288 28.3542C17.8195 28.3485 17.8118 28.3407 17.8061 28.3314C17.8005 28.3221 17.7972 28.3115 17.7965 28.3007C17.7958 28.2898 17.7977 28.279 17.8021 28.269C17.8065 28.2591 17.8132 28.2503 17.8217 28.2435C17.9324 28.1613 18.0431 28.0756 18.1466 27.9899C18.1558 27.9819 18.167 27.9766 18.179 27.9747C18.191 27.9728 18.2033 27.9744 18.2145 27.9792C21.6501 29.547 25.3714 29.547 28.7677 27.9792C28.7785 27.9739 28.7906 27.9718 28.8026 27.973C28.8146 27.9743 28.826 27.9789 28.8355 27.9864C28.9391 28.0721 29.0498 28.1613 29.1605 28.2435C29.169 28.2503 29.1757 28.2591 29.1801 28.269C29.1845 28.279 29.1864 28.2898 29.1857 28.3007C29.185 28.3115 29.1817 28.3221 29.1761 28.3314C29.1704 28.3407 29.1627 28.3485 29.1534 28.3542C28.6299 28.6594 28.0815 28.9198 27.5142 29.1327C27.5055 29.1362 27.4976 29.1414 27.4911 29.1481C27.4845 29.1547 27.4794 29.1627 27.4761 29.1714C27.4727 29.1801 27.4712 29.1894 27.4716 29.1987C27.472 29.2081 27.4743 29.2172 27.4785 29.2256C27.7925 29.8319 28.1506 30.4144 28.5498 30.9684C28.5582 30.9799 28.5699 30.9885 28.5833 30.9929C28.5968 30.9974 28.6113 30.9976 28.6248 30.9934C30.515 30.417 32.2929 29.522 33.8818 28.3471C33.8899 28.3413 33.8967 28.3339 33.9016 28.3252C33.9066 28.3166 33.9096 28.307 33.9104 28.2971C34.3461 23.7722 33.1747 19.8402 30.8033 16.351ZM20.018 25.915C18.9823 25.915 18.1324 24.965 18.1324 23.8008C18.1324 22.6365 18.968 21.683 20.018 21.683C21.0787 21.683 21.9215 22.6401 21.9037 23.7972C21.9037 24.965 21.068 25.915 20.018 25.915ZM26.9963 25.915C25.9607 25.915 25.1107 24.965 25.1107 23.8008C25.1107 22.6365 25.9428 21.683 26.9963 21.683C28.057 21.683 28.8998 22.6401 28.882 23.7972C28.882 24.965 28.0534 25.915 26.9963 25.915Z" fill="#E6CEA5"/>
</svg>
