<svg width="48" height="47" viewBox="0 0 48 47" fill="none" xmlns="http://www.w3.org/2000/svg">
<path d="M23.8983 2.25836C20.636 2.25836 18.3098 5.16147 15.5548 6.65052C12.5161 8.29294 8.57606 9.06404 6.42918 12.0187C5.62698 13.1227 4.81633 13.7824 4.40126 15.119C3.9586 16.5446 3.34384 17.8462 2.83687 19.2528C2.00658 21.5565 1.72117 23.8653 2.3154 26.286C2.793 28.2316 3.77561 30.2133 4.662 31.97C5.18367 33.0038 5.77911 34.1818 5.90772 35.3287C6.10394 37.0786 7.4365 39.5577 9.03651 40.4385C10.5463 41.2697 12.1654 43.1872 13.9904 43.3379C17.0966 43.5944 19.818 44.8881 22.9857 44.8881C29.6236 44.8881 36.9032 45.9319 42.4103 41.6442C44.8519 39.7433 45.5108 38.0634 45.8143 35.056C46.1558 31.6721 46.0073 28.3423 45.5246 24.9942C45.3396 23.711 45.0277 22.5201 44.7424 21.248C44.5538 20.407 43.9416 19.2734 43.5691 18.5352C42.7064 16.8254 41.7071 14.4796 40.3244 13.1096C38.5857 11.3866 37.4672 8.9368 35.2546 7.68396C33.6188 6.75771 32.27 5.60083 30.547 4.84198C28.5713 3.9719 26.3407 2 24.159 2" stroke="#E6CEA5" stroke-width="3" stroke-linecap="round"/>
<path d="M15 17C20.3293 17 25.6846 17 31 17" stroke="#E6CEA5" stroke-width="2" stroke-linecap="round"/>
<path d="M15 24C19.8537 24 24.7184 24 29.5706 24C30.4338 24 31.1608 24 32 24" stroke="#E6CEA5" stroke-width="2" stroke-linecap="round"/>
<path d="M15 32C16.5485 32 18.0971 32 19.6456 32C21.1766 32 22.7075 32 24.2384 32C25.2865 32 26.3369 32 27.3835 32C27.8964 32 28.4034 32 28.9151 32C29.4405 32 29.9779 32 30.5049 32C31.0016 32 31.5037 32 32 32" stroke="#E6CEA5" stroke-width="2" stroke-linecap="round"/>
</svg>
