<svg width="47" height="47" viewBox="0 0 47 47" fill="none" xmlns="http://www.w3.org/2000/svg">
<path d="M23.6128 2.09216C22.8621 2.09216 22.1114 2.09216 21.3606 2.09216C20.0424 2.09216 18.8907 2.43436 17.6096 2.65717C15.7393 2.98243 13.927 3.91893 12.2027 4.6661C10.9024 5.22959 9.59787 5.84833 8.36535 6.54162C7.09146 7.25819 6.25368 8.29232 5.24994 9.29605C4.22591 10.3201 3.67366 12.3174 3.13115 13.6435C2.53853 15.0921 2.00112 16.5065 2.00112 18.0851C2.00112 20.4953 1.94439 22.6751 2.63676 24.983C3.0599 26.3934 3.54199 27.8959 3.70401 29.354C3.93659 31.4472 4.13199 33.6133 5.17931 35.4985C5.61327 36.2796 6.02398 37.3681 6.80372 37.8605C7.2866 38.1655 7.5709 38.7105 8.075 38.9905C8.4418 39.1943 8.78214 39.5713 9.06377 39.8695C10.7389 41.6432 11.9331 43.4411 14.3686 44.3268C15.8606 44.8693 17.5502 44.8918 19.1241 44.8918C20.9318 44.8918 22.6719 44.5962 24.4289 44.1855C25.4049 43.9574 26.4358 43.8148 27.3796 43.4793C28.1326 43.2115 28.9309 43.2545 29.6788 42.9927C30.3959 42.7417 31.157 42.571 31.884 42.3414C33.24 41.9132 34.5908 41.5191 35.839 40.8582C38.0453 39.6902 40.3078 38.2862 41.9835 36.4009C43.0291 35.2247 43.8013 34.1223 44.1259 32.5714C44.3986 31.2685 44.5182 29.8331 44.5182 28.5064C44.5182 25.2539 45.189 21.7047 44.2985 18.5246C43.8249 16.8331 43.463 15.2077 42.8546 13.565C42.6101 12.9048 42.1163 12.4351 41.7638 11.8386C41.371 11.1738 40.9962 10.465 40.4219 9.93169C39.6685 9.23211 38.8839 8.55356 38.1305 7.85213C37.6622 7.41613 36.9788 7.10763 36.6081 6.58086C36.2268 6.03903 35.2233 5.50925 34.5207 5.48222C33.0587 5.426 31.6331 4.06391 30.2596 3.58316C28.9144 3.11235 27.6097 2.40749 26.226 2.1C24.9372 1.81361 23.4721 2.23341 22.2003 2.23341" stroke="#E8D2AB" stroke-width="3" stroke-linecap="round"/>
<path d="M27.9632 13.9688H30.8589L24.5343 21.1957L31.9745 31.0312H26.1503L21.5853 25.0676L16.3681 31.0312H13.4683L20.2317 23.2998L13.0991 13.9688H19.071L23.1931 19.4197L27.9632 13.9688ZM26.946 29.3004H28.5497L18.1974 15.6094H16.4747L26.946 29.3004Z" fill="#E6CEA5"/>
</svg>
